<?xml version="1.0" encoding="UTF-8" standalone="no"?>
<!-- Created with Inkscape (http://www.inkscape.org/) -->

<svg
   xmlns:dc="http://purl.org/dc/elements/1.1/"
   xmlns:cc="http://creativecommons.org/ns#"
   xmlns:rdf="http://www.w3.org/1999/02/22-rdf-syntax-ns#"
   xmlns:svg="http://www.w3.org/2000/svg"
   xmlns="http://www.w3.org/2000/svg"
   xmlns:sodipodi="http://sodipodi.sourceforge.net/DTD/sodipodi-0.dtd"
   xmlns:inkscape="http://www.inkscape.org/namespaces/inkscape"
   id="svg3212"
   version="1.1"
   inkscape:version="0.48.2 r9819"
   width="46"
   height="45"
   sodipodi:docname="haekchen2.png">
  <metadata
     id="metadata3218">
    <rdf:RDF>
      <cc:Work
         rdf:about="">
        <dc:format>image/svg+xml</dc:format>
        <dc:type
           rdf:resource="http://purl.org/dc/dcmitype/StillImage" />
        <dc:title></dc:title>
      </cc:Work>
    </rdf:RDF>
  </metadata>
  <defs
     id="defs3216" />
  <sodipodi:namedview
     pagecolor="#ffffff"
     bordercolor="#666666"
     borderopacity="1"
     objecttolerance="10"
     gridtolerance="10"
     guidetolerance="10"
     inkscape:pageopacity="0"
     inkscape:pageshadow="2"
     inkscape:window-width="1920"
     inkscape:window-height="1146"
     id="namedview3214"
     showgrid="false"
     inkscape:zoom="14.833529"
     inkscape:cx="23"
     inkscape:cy="22.5"
     inkscape:window-x="-1"
     inkscape:window-y="26"
     inkscape:window-maximized="1"
     inkscape:current-layer="svg3212" />
  <path
     style="fill:#008000;fill-opacity:1"
     d="M 5.8301696,43.547755 C 4.1080451,41.4169 1.2645355,31.102647 1.9248329,29.381939 c 0.6608912,-1.722255 4.6371493,-3.663811 5.9358295,-2.89839 0.4208333,0.248033 1.4436607,2.074869 2.2729496,4.059637 0.860874,2.060362 1.863319,3.210917 2.336416,2.681619 0.45574,-0.509877 4.088664,-5.763987 8.073165,-11.675798 C 30.102115,7.3664145 35.680971,1.2306635 39.758972,0.41506348 c 1.766346,-0.35327 3.534293,-0.299183 3.928771,0.120192 0.394477,0.419375 -2.847941,5.26250002 -7.205373,10.76249952 -4.357433,5.5 -11.130517,14.725 -15.051299,20.5 -7.879787,11.606301 -9.209617,13 -12.4042449,13 -1.2025341,0 -2.6410296,-0.5625 -3.1966565,-1.25 z"
     id="path3240"
     inkscape:connector-curvature="0" />
</svg>
